<svg width="161" height="57" viewBox="0 0 161 57" fill="none" xmlns="http://www.w3.org/2000/svg">
<path d="M100.38 22.776H102.837V34.5091H100.794L94.9416 27.1441V34.5091H92.4843V22.776H94.5272L100.38 30.148V22.776Z" fill="black"/>
<path d="M83.3121 30.148L77.8415 22.776H75.9199V34.5091H78.1971V27.1441L83.6677 34.5091H85.5825V22.776H83.2779L83.3121 30.148Z" fill="black"/>
<path d="M66.9475 34.5091H69.7082V22.776H66.9475V34.5091Z" fill="black"/>
<path d="M139.919 30.4851L137.442 22.776H135.187L132.709 30.4851L130.225 22.776H127.683L131.585 34.495H133.834L136.318 26.8706L138.795 34.5091H141.036L144.938 22.7901H142.404L139.919 30.4851Z" fill="black"/>
<path d="M119.68 23.7859C120.827 24.8877 121.472 26.3876 121.472 27.9524C121.472 29.5171 120.827 31.017 119.68 32.1188C117.198 34.3856 113.323 34.3856 110.84 32.1188C109.694 31.017 109.049 29.5171 109.049 27.9524C109.049 26.4587 109.636 25.0242 110.687 23.9386L110.84 23.7859C113.323 21.5191 117.198 21.5191 119.68 23.7859ZM112.556 25.332C111.102 26.739 111.061 28.9973 112.432 30.4534L112.553 30.5762C114.046 32.0252 116.469 32.0268 117.964 30.5796C119.459 29.1324 119.461 26.7845 117.968 25.3354C116.474 23.8864 114.052 23.8848 112.556 25.332Z" fill="black"/>
<path d="M157.764 22.9361L157.9 23.0493C158.584 23.6254 158.978 24.4583 158.982 25.3353C158.983 25.6176 158.939 25.8984 158.854 26.1684C158.79 26.4144 158.682 26.6475 158.534 26.857C158.423 27.0139 158.302 27.1634 158.171 27.3045L158.064 27.4147L158.334 27.6626C158.525 27.8461 158.696 28.0466 158.847 28.2616C159.019 28.5156 159.16 28.7883 159.267 29.0741C159.384 29.4087 159.44 29.7606 159.431 30.1138C159.455 31.1094 159.031 32.0662 158.27 32.7372C156.58 34.1795 154.044 34.1795 152.353 32.7372C151.582 32.0699 151.143 31.1146 151.15 30.1138C151.15 29.5575 151.303 29.0113 151.591 28.5301C151.809 28.1229 152.104 27.7587 152.46 27.456L152.531 27.4078C152.307 27.1815 152.12 26.9238 151.976 26.6435C151.744 26.244 151.624 25.7932 151.627 25.3353C151.625 24.4586 152.018 23.6245 152.702 23.0493C154.135 21.8036 156.287 21.7658 157.764 22.9361ZM154.023 28.9158L153.92 28.9984C153.579 29.2753 153.381 29.6832 153.378 30.1138C153.384 30.5438 153.581 30.9506 153.92 31.2292C154.697 31.8913 155.862 31.8913 156.64 31.2292C156.978 30.9506 157.176 30.5438 157.181 30.1138C157.179 29.6832 156.981 29.2753 156.64 28.9984C155.896 28.3651 154.798 28.3376 154.023 28.9158ZM154.24 24.4677C153.99 24.6909 153.85 25.0064 153.856 25.3353C153.851 25.6622 153.991 25.9754 154.24 26.196C154.524 26.4441 154.897 26.5751 155.28 26.5609C155.663 26.5797 156.038 26.4481 156.319 26.196C156.574 25.9783 156.717 25.6638 156.711 25.3353C156.717 25.0048 156.574 24.688 156.319 24.4677C155.717 23.9823 154.842 23.9823 154.24 24.4677Z" fill="black"/>
<path d="M28.2974 0.690186C13.0504 0.690186 0.690186 13.0504 0.690186 28.2974C0.690186 43.5445 13.0504 55.9047 28.2974 55.9047C43.5445 55.9047 55.9046 43.5445 55.9046 28.2974C55.9008 13.052 43.5429 0.694063 28.2974 0.690186Z" fill="black"/>
<path d="M24.4119 22.7406L15.8489 25.9604V28.0694L24.1043 25.0957L24.4119 22.7406ZM23.3214 30.9728L9.6626 26.565V28.674L23.0558 33.0045L23.3214 30.9728ZM31.1224 35.7603L40.0559 38.8746V36.7656L31.3881 33.7427L31.1224 35.7603ZM29.9341 44.7307L46.2422 39.4581V37.3491L30.2347 42.5232L29.9341 44.7307ZM28.4801 45.0049L23.2655 46.2422L23.4472 44.6955L27.2988 14.2694H27.9978L24.2022 44.4987L28.6549 43.4301L28.4801 45.0049ZM32.2898 11.6261L27.7112 11.5839L28.2565 6.90186L32.828 6.95107L32.2898 11.6261Z" fill="#D8D8D8"/>
<path d="M23.3084 31.4335L9.6626 27.0575V25.9338L24.7679 20.7063L24.4327 23.2607L15.843 26.4572L23.6296 28.9907L23.3084 31.4335ZM31.6886 31.7546L31.3673 34.1834L40.0199 37.1845L30.5572 40.2554L30.2081 42.9146L46.2003 37.7778L46.2422 36.6611L31.6886 31.7546ZM29.2164 38.6711L29.2723 38.0151L31.3673 19.6035L31.5698 17.8238L31.933 14.8506H28.0083L24.1883 44.8618L28.6368 43.8149L29.2164 38.6711ZM32.7989 7.59204H28.965L28.5181 11.1864H32.366L32.7989 7.59204Z" fill="white"/>
</svg>
