<svg width="14" height="9" viewBox="0 0 14 9" fill="none" xmlns="http://www.w3.org/2000/svg">
<path d="M1.01047 8.23924C0.843486 8.18449 0.73125 8.09963 0.432866 7.80125C0.167331 7.53571 0.104369 7.45633 0.0578325 7.32493C-0.0188167 7.12509 -0.0188167 6.96632 0.0550951 6.76648C0.109845 6.61318 0.249456 6.47084 3.34827 3.36928C5.74082 0.973996 6.61408 0.117168 6.70441 0.0733684C6.89604 -0.0197055 7.10408 -0.0251804 7.29844 0.0624187C7.44353 0.128118 7.7556 0.434715 10.6655 3.35833C12.8993 5.60306 13.8903 6.61866 13.9368 6.70352C13.9861 6.79934 13.9998 6.87051 13.9998 7.03202C13.9998 7.32493 13.9395 7.42622 13.5207 7.83684C13.2196 8.13522 13.1566 8.18176 13.028 8.22008C12.8309 8.27757 12.7049 8.27483 12.5161 8.20639C12.3655 8.15164 12.2368 8.02846 9.68004 5.4744L7.00553 2.80263L4.32829 5.4744C2.47502 7.32493 1.62093 8.16259 1.54428 8.19818C1.42657 8.25293 1.12271 8.27483 1.01047 8.23924Z" fill="#B07000"/>
</svg>
