<svg width="14" height="9" viewBox="0 0 14 9" fill="none" xmlns="http://www.w3.org/2000/svg">
<path d="M12.9893 0.021378C13.1563 0.0761274 13.2685 0.160989 13.5669 0.459373C13.8324 0.724908 13.8954 0.804295 13.9419 0.935693C14.0186 1.13553 14.0186 1.2943 13.9447 1.49414C13.8899 1.64744 13.7503 1.78978 10.6515 4.89134C8.25893 7.28662 7.38568 8.14345 7.29534 8.18725C7.10372 8.28033 6.89567 8.2858 6.70131 8.1982C6.55623 8.1325 6.24415 7.82591 3.33422 4.90229C1.10045 2.65756 0.109484 1.64196 0.0629471 1.5571C0.0136726 1.46129 -1.47385e-05 1.39011 -1.47244e-05 1.2286C-1.46988e-05 0.935692 0.0602097 0.834406 0.479043 0.423785C0.780165 0.125401 0.843126 0.0788638 0.971787 0.0405392C1.16889 -0.0169476 1.29481 -0.0142101 1.48369 0.0542266C1.63426 0.108976 1.76292 0.232162 4.31971 2.78622L6.99422 5.45799L9.67147 2.78622C11.5247 0.935693 12.3788 0.0980271 12.4555 0.06244C12.5732 0.00769061 12.877 -0.0142091 12.9893 0.021378Z" fill="#EBEBEB"/>
</svg>
